<svg width="311" height="136" viewBox="0 0 311 136" fill="none" xmlns="http://www.w3.org/2000/svg">
<rect opacity="0.3" width="309.537" height="17.7096" transform="matrix(0.999662 -0.0260076 0.00878337 0.999961 0.966797 95.688)" fill="#FDDA24"/>
<path d="M11.129 83V22.0483H23.3335V72.6403H35.8928V83H11.129ZM53.4518 83.5677C48.4375 83.5677 44.7005 82.1485 42.2406 79.3103C39.8281 76.472 38.6218 72.2619 38.6218 66.68V22.0483H50.4716V66.1833C50.4716 68.1228 50.6608 69.6365 51.0392 70.7245C51.4177 71.8125 52.2218 72.3565 53.4518 72.3565C54.6817 72.3565 55.4858 71.8362 55.8643 70.7955C56.2427 69.7075 56.4319 68.1701 56.4319 66.1833V22.0483H68.2817V66.68C68.2817 72.2619 67.0518 76.472 64.5919 79.3103C62.1794 82.1485 58.466 83.5677 53.4518 83.5677ZM72.9387 83V22.0483H91.5294L96.6382 59.2296L101.747 22.0483H120.48V83H109.339V39.0779L102.315 83H91.3874L83.937 39.0779V83H72.9387ZM125.879 83V22.0483H150.288V33.8271H138.296V45.6769H149.791V57.1718H138.296V71.1503H151.069V83H125.879ZM155.121 83V22.0483H167.68L173.286 51.2115V22.0483H185.064V83H173.144L167.042 52.4887V83H155.121ZM190.827 83L191.075 78.447C192.621 78.3918 193.807 78.1434 194.635 77.7019C195.518 77.2052 196.153 76.3774 196.539 75.2184C196.981 74.0043 197.229 72.3486 197.284 70.2515L199.023 37.2212C199.133 35.8415 199.243 34.517 199.354 33.2477C199.519 31.9783 199.657 30.9849 199.768 30.2675C198.829 30.3227 197.753 30.3779 196.539 30.433C195.325 30.433 194.359 30.4606 193.642 30.5158L193.89 25.0522H215.662L215.414 29.6052C214.034 29.6604 212.902 29.9088 212.019 30.3503C211.136 30.7918 210.474 31.5644 210.033 32.6682C209.591 33.7168 209.315 35.3448 209.205 37.5523L208.46 50.7148H214.668L222.947 38.049C223.94 36.559 224.989 35.0689 226.092 33.5788C227.196 32.0335 228.217 30.9021 229.155 30.1847C228.272 30.2399 227.334 30.2951 226.341 30.3503C225.403 30.3503 224.602 30.3779 223.94 30.433L224.106 25.0522H243.56L243.394 29.6052C241.794 29.7156 240.193 29.9915 238.593 30.433C237.047 30.8745 235.475 31.7576 233.874 33.0821C232.274 34.3514 230.563 36.3106 228.742 38.9597L220.132 51.791C221.346 52.5636 222.367 53.419 223.195 54.3572C224.078 55.2954 224.851 56.2888 225.513 57.3374L233.626 69.5064C234.95 71.438 236.192 73.0661 237.351 74.3906C238.565 75.7151 239.752 76.7085 240.911 77.3708C242.07 78.033 243.256 78.3918 244.47 78.447L244.139 83H232.55C232.053 82.9448 231.335 82.4757 230.397 81.5927C229.459 80.7097 228.493 79.6335 227.5 78.3642C226.506 77.0397 225.596 75.7979 224.768 74.639L216.655 62.2216C215.883 61.0626 215.055 59.9312 214.172 58.8275C213.289 57.6685 212.461 56.7855 211.688 56.1784C211.412 56.1784 210.916 56.206 210.198 56.2612C209.481 56.2612 208.819 56.2612 208.211 56.2612L207.466 70.6654C207.411 72.1555 207.301 73.5352 207.135 74.8045C207.025 76.0739 206.915 77.0672 206.804 77.7847C207.742 77.7295 208.819 77.6743 210.033 77.6191C211.247 77.5639 212.213 77.5363 212.93 77.5363L212.682 83H190.827ZM254.989 40.6981C257.693 40.6981 259.597 41.5535 260.701 43.2643C261.86 44.92 262.439 47.1551 262.439 49.9697C262.439 51.4046 262.301 53.2259 262.025 55.4334C261.749 57.6409 261.418 59.9864 261.032 62.4699C260.701 64.9534 260.37 67.2989 260.039 69.5064C259.763 71.6588 259.625 73.4248 259.625 74.8045C259.625 75.7427 259.79 76.405 260.121 76.7913C260.452 77.1776 260.866 77.3708 261.363 77.3708C262.08 77.3708 262.853 76.8741 263.681 75.8807C264.509 74.8321 265.309 72.9833 266.082 70.3343L269.807 71.4104C269.586 72.5694 269.172 73.8663 268.565 75.3012C267.958 76.7361 267.158 78.1158 266.164 79.4403C265.226 80.7097 264.067 81.7859 262.688 82.6689C261.308 83.4967 259.735 83.9106 257.969 83.9106C255.099 83.9106 253.085 83.138 251.926 81.5927C250.767 80.0474 250.187 77.8675 250.187 75.0529C250.187 73.1765 250.325 71.1345 250.601 68.927C250.932 66.6642 251.291 64.4015 251.677 62.1388C252.064 59.8209 252.395 57.6133 252.671 55.5162C252.947 53.419 253.085 51.5426 253.085 49.887C253.085 49.0039 252.947 48.3417 252.671 47.9002C252.395 47.4587 251.981 47.2379 251.429 47.2379C250.767 47.2379 250.022 47.7622 249.194 48.8108C248.366 49.8042 247.566 51.6254 246.793 54.2744L243.068 53.1983C243.234 52.0945 243.62 50.8252 244.227 49.3903C244.834 47.9554 245.634 46.5757 246.628 45.2511C247.676 43.9266 248.89 42.8504 250.27 42.0226C251.65 41.1396 253.223 40.6981 254.989 40.6981ZM258.466 20.8303C260.121 20.8303 261.446 21.4097 262.439 22.5687C263.488 23.7276 263.984 25.1901 263.929 26.9562C263.874 28.667 263.295 30.1019 262.191 31.2609C261.087 32.4198 259.735 32.9993 258.135 32.9993C256.479 32.9993 255.127 32.4198 254.078 31.2609C253.03 30.1019 252.533 28.667 252.588 26.9562C252.643 25.1901 253.25 23.7276 254.409 22.5687C255.623 21.4097 256.976 20.8303 258.466 20.8303ZM290.578 29.3569L289.005 41.6087H300.264L299.85 46.4929L288.509 46.6584C288.288 48.7556 288.04 50.9907 287.764 53.3638C287.488 55.6817 287.239 57.9721 287.019 60.2348C286.853 62.4975 286.687 64.5947 286.522 66.5263C286.356 68.4027 286.274 69.9479 286.274 71.1621C286.274 71.9899 286.356 72.8729 286.522 73.8111C286.687 74.7493 287.046 75.5496 287.598 76.2118C288.15 76.8741 289.033 77.2052 290.247 77.2052C290.744 77.2052 291.406 77.0948 292.234 76.8741C293.062 76.5981 293.972 76.1014 294.966 75.384C295.959 74.6114 296.897 73.4248 297.78 71.8243L301.34 74.0595C299.574 77.3156 297.477 79.7715 295.048 81.4271C292.62 83.0828 289.944 83.9106 287.019 83.9106C284.259 83.9106 282.162 83.3311 280.727 82.1722C279.292 81.0132 278.326 79.4955 277.83 77.6191C277.333 75.7427 277.085 73.7835 277.085 71.7416C277.195 69.7548 277.333 67.4093 277.499 64.705C277.664 62.0008 277.885 59.1034 278.161 56.0129C278.437 52.8671 278.74 49.7766 279.071 46.7412L272.2 46.824L272.78 41.6087C276.809 41.6087 279.761 40.5601 281.638 38.463C283.569 36.3106 284.977 33.2752 285.86 29.3569H290.578Z" fill="white"/>
</svg>
